<svg xmlns="http://www.w3.org/2000/svg" xmlns:xlink="http://www.w3.org/1999/xlink" width="500" zoomAndPan="magnify" viewBox="0 0 375 374.999991" height="500" preserveAspectRatio="xMidYMid meet" version="1.0"><path fill="#ffffff" d="M 138.472656 19.085938 C 137.859375 19.085938 137.25 19.117188 136.640625 19.175781 C 136.027344 19.238281 135.421875 19.328125 134.824219 19.445312 C 134.222656 19.566406 133.628906 19.714844 133.042969 19.894531 C 132.453125 20.070312 131.878906 20.277344 131.3125 20.511719 C 130.746094 20.746094 130.191406 21.007812 129.652344 21.296875 C 129.113281 21.585938 128.585938 21.898438 128.078125 22.242188 C 127.566406 22.582031 127.074219 22.945312 126.601562 23.335938 C 126.128906 23.722656 125.675781 24.132812 125.242188 24.566406 C 124.808594 25 124.398438 25.453125 124.007812 25.929688 C 123.621094 26.402344 123.253906 26.894531 122.914062 27.402344 C 122.574219 27.914062 122.257812 28.4375 121.96875 28.976562 C 121.679688 29.519531 121.417969 30.070312 121.183594 30.636719 C 120.949219 31.203125 120.742188 31.78125 120.566406 32.367188 C 120.386719 32.953125 120.238281 33.546875 120.121094 34.148438 C 120 34.75 119.910156 35.355469 119.851562 35.964844 C 119.789062 36.574219 119.761719 37.1875 119.761719 37.800781 C 119.761719 38.414062 119.789062 39.023438 119.851562 39.632812 C 119.910156 40.242188 120 40.847656 120.121094 41.449219 C 120.238281 42.050781 120.386719 42.644531 120.566406 43.230469 C 120.742188 43.816406 120.949219 44.394531 121.183594 44.960938 C 121.417969 45.527344 121.679688 46.078125 121.96875 46.621094 C 122.257812 47.160156 122.574219 47.6875 122.914062 48.195312 C 123.253906 48.707031 123.621094 49.195312 124.007812 49.671875 C 124.398438 50.144531 124.808594 50.597656 125.242188 51.03125 C 125.675781 51.464844 126.128906 51.875 126.601562 52.265625 C 127.074219 52.652344 127.566406 53.019531 128.078125 53.359375 C 128.585938 53.699219 129.113281 54.011719 129.652344 54.300781 C 130.191406 54.589844 130.746094 54.851562 131.3125 55.085938 C 131.878906 55.320312 132.453125 55.527344 133.042969 55.707031 C 133.628906 55.882812 134.222656 56.03125 134.824219 56.152344 C 135.421875 56.273438 136.027344 56.363281 136.640625 56.421875 C 137.25 56.480469 137.859375 56.511719 138.472656 56.511719 C 139.085938 56.511719 139.699219 56.480469 140.308594 56.421875 C 140.917969 56.363281 141.523438 56.273438 142.125 56.152344 C 142.726562 56.03125 143.320312 55.882812 143.90625 55.707031 C 144.492188 55.527344 145.066406 55.320312 145.632812 55.085938 C 146.199219 54.851562 146.753906 54.589844 147.292969 54.300781 C 147.835938 54.011719 148.359375 53.699219 148.871094 53.359375 C 149.378906 53.019531 149.871094 52.652344 150.34375 52.265625 C 150.816406 51.875 151.269531 51.464844 151.703125 51.03125 C 152.136719 50.597656 152.550781 50.144531 152.9375 49.671875 C 153.328125 49.195312 153.691406 48.707031 154.03125 48.195312 C 154.371094 47.6875 154.6875 47.160156 154.976562 46.621094 C 155.265625 46.078125 155.527344 45.527344 155.761719 44.960938 C 155.996094 44.394531 156.203125 43.816406 156.378906 43.230469 C 156.558594 42.644531 156.707031 42.050781 156.824219 41.449219 C 156.945312 40.847656 157.035156 40.242188 157.09375 39.632812 C 157.15625 39.023438 157.1875 38.414062 157.1875 37.800781 C 157.1875 37.1875 157.15625 36.574219 157.09375 35.964844 C 157.035156 35.355469 156.945312 34.75 156.824219 34.148438 C 156.707031 33.546875 156.558594 32.953125 156.378906 32.367188 C 156.203125 31.78125 155.996094 31.203125 155.761719 30.636719 C 155.527344 30.070312 155.265625 29.519531 154.976562 28.976562 C 154.6875 28.4375 154.371094 27.914062 154.03125 27.402344 C 153.691406 26.894531 153.328125 26.402344 152.9375 25.929688 C 152.550781 25.453125 152.136719 25 151.703125 24.566406 C 151.269531 24.132812 150.816406 23.722656 150.34375 23.335938 C 149.871094 22.945312 149.378906 22.582031 148.871094 22.242188 C 148.359375 21.898438 147.835938 21.585938 147.292969 21.296875 C 146.753906 21.007812 146.199219 20.746094 145.632812 20.511719 C 145.066406 20.277344 144.492188 20.070312 143.90625 19.890625 C 143.320312 19.714844 142.726562 19.566406 142.125 19.445312 C 141.523438 19.328125 140.917969 19.238281 140.308594 19.175781 C 139.699219 19.117188 139.085938 19.085938 138.472656 19.085938 Z M 235.777344 19.085938 C 235.164062 19.085938 234.554688 19.117188 233.945312 19.175781 C 233.335938 19.238281 232.730469 19.328125 232.128906 19.445312 C 231.527344 19.566406 230.933594 19.714844 230.347656 19.894531 C 229.761719 20.070312 229.183594 20.277344 228.617188 20.511719 C 228.050781 20.746094 227.496094 21.007812 226.957031 21.296875 C 226.417969 21.585938 225.890625 21.898438 225.382812 22.242188 C 224.871094 22.582031 224.382812 22.945312 223.90625 23.335938 C 223.433594 23.722656 222.980469 24.132812 222.546875 24.566406 C 222.113281 25 221.703125 25.453125 221.3125 25.929688 C 220.925781 26.402344 220.558594 26.894531 220.21875 27.402344 C 219.878906 27.914062 219.5625 28.4375 219.277344 28.976562 C 218.988281 29.519531 218.726562 30.070312 218.492188 30.636719 C 218.253906 31.203125 218.050781 31.78125 217.871094 32.367188 C 217.695312 32.953125 217.546875 33.546875 217.425781 34.148438 C 217.304688 34.75 217.214844 35.355469 217.15625 35.964844 C 217.097656 36.574219 217.066406 37.1875 217.066406 37.800781 C 217.066406 38.414062 217.097656 39.023438 217.15625 39.632812 C 217.214844 40.242188 217.304688 40.847656 217.425781 41.449219 C 217.546875 42.050781 217.695312 42.644531 217.871094 43.230469 C 218.050781 43.816406 218.253906 44.394531 218.492188 44.960938 C 218.726562 45.527344 218.988281 46.078125 219.277344 46.621094 C 219.5625 47.160156 219.878906 47.6875 220.21875 48.195312 C 220.558594 48.707031 220.925781 49.195312 221.3125 49.671875 C 221.703125 50.144531 222.113281 50.597656 222.546875 51.03125 C 222.980469 51.464844 223.433594 51.875 223.90625 52.265625 C 224.382812 52.652344 224.871094 53.019531 225.382812 53.359375 C 225.890625 53.699219 226.417969 54.011719 226.957031 54.300781 C 227.496094 54.589844 228.050781 54.851562 228.617188 55.085938 C 229.183594 55.320312 229.761719 55.527344 230.347656 55.707031 C 230.933594 55.882812 231.527344 56.03125 232.128906 56.152344 C 232.730469 56.273438 233.335938 56.363281 233.945312 56.421875 C 234.554688 56.480469 235.164062 56.511719 235.777344 56.511719 C 236.390625 56.511719 237.003906 56.480469 237.613281 56.421875 C 238.222656 56.363281 238.828125 56.273438 239.429688 56.152344 C 240.03125 56.03125 240.625 55.882812 241.210938 55.707031 C 241.796875 55.527344 242.375 55.320312 242.9375 55.085938 C 243.503906 54.851562 244.058594 54.589844 244.597656 54.300781 C 245.140625 54.011719 245.664062 53.699219 246.175781 53.359375 C 246.683594 53.019531 247.175781 52.652344 247.648438 52.265625 C 248.125 51.875 248.578125 51.464844 249.011719 51.03125 C 249.445312 50.597656 249.855469 50.144531 250.242188 49.671875 C 250.632812 49.195312 250.996094 48.707031 251.335938 48.195312 C 251.679688 47.6875 251.992188 47.160156 252.28125 46.621094 C 252.570312 46.078125 252.832031 45.527344 253.066406 44.960938 C 253.300781 44.394531 253.507812 43.816406 253.683594 43.230469 C 253.863281 42.644531 254.011719 42.050781 254.132812 41.449219 C 254.25 40.847656 254.339844 40.242188 254.402344 39.632812 C 254.460938 39.023438 254.492188 38.414062 254.492188 37.800781 C 254.492188 37.1875 254.460938 36.574219 254.402344 35.964844 C 254.339844 35.355469 254.25 34.75 254.132812 34.148438 C 254.011719 33.546875 253.863281 32.953125 253.683594 32.367188 C 253.507812 31.78125 253.300781 31.203125 253.066406 30.636719 C 252.832031 30.070312 252.570312 29.519531 252.28125 28.976562 C 251.992188 28.4375 251.679688 27.914062 251.335938 27.402344 C 250.996094 26.894531 250.632812 26.402344 250.242188 25.929688 C 249.855469 25.453125 249.445312 25 249.011719 24.566406 C 248.578125 24.132812 248.125 23.722656 247.648438 23.335938 C 247.175781 22.945312 246.683594 22.582031 246.175781 22.242188 C 245.664062 21.898438 245.140625 21.585938 244.597656 21.296875 C 244.058594 21.007812 243.503906 20.746094 242.9375 20.511719 C 242.375 20.277344 241.796875 20.070312 241.210938 19.890625 C 240.625 19.714844 240.03125 19.566406 239.429688 19.445312 C 238.828125 19.328125 238.222656 19.238281 237.613281 19.175781 C 237.003906 19.117188 236.390625 19.085938 235.777344 19.085938 Z M 254.679688 86.246094 C 254.050781 86.242188 253.429688 86.316406 252.816406 86.46875 C 252.207031 86.625 251.621094 86.851562 251.066406 87.148438 C 250.511719 87.449219 250.003906 87.816406 249.542969 88.242188 C 249.078125 88.671875 248.675781 89.152344 248.335938 89.683594 C 248.335938 89.683594 224.074219 123.878906 187.125 123.878906 C 150.179688 123.878906 125.914062 89.683594 125.914062 89.683594 C 125.566406 89.160156 125.15625 88.691406 124.6875 88.273438 C 124.222656 87.851562 123.710938 87.5 123.152344 87.207031 C 122.59375 86.917969 122.011719 86.703125 121.398438 86.558594 C 120.789062 86.417969 120.167969 86.351562 119.542969 86.363281 C 118.859375 86.378906 118.195312 86.484375 117.542969 86.679688 C 116.890625 86.878906 116.277344 87.15625 115.703125 87.519531 C 115.128906 87.882812 114.613281 88.316406 114.15625 88.820312 C 113.699219 89.328125 113.316406 89.882812 113.011719 90.492188 C 112.707031 91.097656 112.488281 91.738281 112.359375 92.40625 C 112.226562 93.070312 112.1875 93.746094 112.238281 94.421875 C 112.292969 95.101562 112.433594 95.761719 112.664062 96.402344 C 112.898438 97.039062 113.210938 97.636719 113.605469 98.191406 C 113.605469 98.191406 141.167969 138.847656 187.125 138.847656 C 233.082031 138.847656 260.644531 98.191406 260.644531 98.191406 C 261.058594 97.636719 261.386719 97.035156 261.632812 96.390625 C 261.875 95.742188 262.027344 95.074219 262.089844 94.386719 C 262.148438 93.699219 262.117188 93.015625 261.988281 92.335938 C 261.855469 91.65625 261.636719 91.007812 261.328125 90.386719 C 261.019531 89.769531 260.632812 89.207031 260.167969 88.695312 C 259.703125 88.183594 259.175781 87.746094 258.589844 87.378906 C 258.003906 87.011719 257.378906 86.734375 256.714844 86.542969 C 256.050781 86.351562 255.371094 86.25 254.679688 86.246094 Z M 89.9375 107.285156 C 89.003906 107.285156 88.101562 107.457031 87.234375 107.796875 L 42.324219 124.34375 C 41.195312 124.707031 40.210938 125.300781 39.367188 126.128906 C 38.523438 126.960938 37.910156 127.933594 37.527344 129.050781 L 1.140625 187.28125 C 0.847656 187.753906 0.609375 188.25 0.425781 188.773438 C 0.242188 189.300781 0.121094 189.835938 0.0585938 190.390625 C -0.0078125 190.941406 -0.0078125 191.492188 0.0507812 192.046875 C 0.113281 192.597656 0.230469 193.136719 0.410156 193.664062 C 0.589844 194.1875 0.828125 194.6875 1.117188 195.160156 C 1.410156 195.632812 1.75 196.070312 2.136719 196.464844 C 2.523438 196.863281 2.953125 197.214844 3.417969 197.515625 C 3.882812 197.820312 4.375 198.066406 4.898438 198.257812 L 37.425781 210.246094 L 37.425781 296.03125 C 37.425781 296.796875 37.542969 297.546875 37.769531 298.273438 C 38 299.003906 38.335938 299.683594 38.773438 300.308594 C 39.210938 300.9375 39.730469 301.484375 40.335938 301.953125 C 40.941406 302.417969 41.605469 302.785156 42.324219 303.050781 L 184.539062 355.445312 C 185.375 355.753906 186.234375 355.90625 187.125 355.90625 C 188.015625 355.90625 188.878906 355.753906 189.714844 355.445312 L 331.929688 303.050781 C 332.648438 302.785156 333.308594 302.417969 333.914062 301.953125 C 334.519531 301.484375 335.042969 300.9375 335.480469 300.308594 C 335.917969 299.683594 336.25 299.003906 336.480469 298.273438 C 336.710938 297.546875 336.824219 296.796875 336.828125 296.03125 L 336.828125 210.246094 L 369.355469 198.257812 C 369.875 198.066406 370.367188 197.820312 370.835938 197.515625 C 371.300781 197.214844 371.726562 196.863281 372.113281 196.464844 C 372.503906 196.070312 372.84375 195.632812 373.132812 195.160156 C 373.425781 194.6875 373.660156 194.1875 373.839844 193.664062 C 374.019531 193.136719 374.140625 192.597656 374.199219 192.046875 C 374.257812 191.492188 374.257812 190.941406 374.195312 190.390625 C 374.132812 189.835938 374.007812 189.300781 373.824219 188.773438 C 373.644531 188.25 373.40625 187.753906 373.109375 187.28125 L 336.710938 129.023438 C 336.324219 127.910156 335.710938 126.945312 334.871094 126.121094 C 334.03125 125.296875 333.050781 124.707031 331.929688 124.34375 C 331.832031 124.308594 331.734375 124.273438 331.636719 124.242188 L 287.019531 107.796875 C 286.074219 107.429688 285.09375 107.265625 284.082031 107.300781 C 283.648438 107.316406 283.222656 107.367188 282.800781 107.457031 C 282.378906 107.546875 281.964844 107.671875 281.566406 107.835938 C 281.164062 107.996094 280.78125 108.191406 280.414062 108.417969 C 280.046875 108.644531 279.703125 108.902344 279.378906 109.191406 C 279.058594 109.476562 278.761719 109.789062 278.492188 110.128906 C 278.226562 110.464844 277.988281 110.824219 277.78125 111.203125 C 277.574219 111.582031 277.402344 111.976562 277.265625 112.386719 C 277.125 112.796875 277.023438 113.214844 276.960938 113.640625 C 276.894531 114.066406 276.863281 114.496094 276.875 114.929688 C 276.882812 115.359375 276.929688 115.789062 277.011719 116.210938 C 277.09375 116.636719 277.210938 117.050781 277.367188 117.453125 C 277.519531 117.855469 277.707031 118.242188 277.929688 118.613281 C 278.148438 118.984375 278.402344 119.335938 278.683594 119.660156 C 278.964844 119.988281 279.273438 120.289062 279.605469 120.5625 C 279.9375 120.835938 280.292969 121.082031 280.667969 121.292969 C 281.046875 121.507812 281.4375 121.683594 281.84375 121.832031 L 307.703125 131.363281 L 187.125 175.789062 L 66.546875 131.363281 L 92.40625 121.832031 C 92.820312 121.683594 93.21875 121.503906 93.597656 121.289062 C 93.980469 121.074219 94.339844 120.828125 94.679688 120.550781 C 95.015625 120.269531 95.328125 119.964844 95.613281 119.632812 C 95.898438 119.300781 96.148438 118.945312 96.371094 118.566406 C 96.59375 118.1875 96.78125 117.796875 96.933594 117.386719 C 97.085938 116.976562 97.203125 116.554688 97.28125 116.125 C 97.363281 115.691406 97.402344 115.257812 97.40625 114.820312 C 97.410156 114.382812 97.375 113.949219 97.300781 113.515625 C 97.226562 113.085938 97.117188 112.664062 96.96875 112.25 C 96.820312 111.839844 96.640625 111.441406 96.421875 111.0625 C 96.207031 110.679688 95.957031 110.324219 95.675781 109.984375 C 95.398438 109.648438 95.089844 109.339844 94.757812 109.054688 C 94.421875 108.773438 94.066406 108.523438 93.6875 108.300781 C 93.308594 108.082031 92.914062 107.894531 92.503906 107.746094 C 92.09375 107.59375 91.671875 107.480469 91.242188 107.402344 C 90.808594 107.324219 90.375 107.285156 89.9375 107.285156 Z M 48.039062 140.484375 L 175.914062 187.585938 L 175.914062 187.601562 L 146.585938 234.515625 L 18.699219 187.414062 Z M 326.210938 140.484375 L 355.554688 187.414062 L 227.664062 234.515625 L 198.351562 187.601562 Z M 179.640625 209.839844 L 179.640625 337.683594 L 52.394531 290.8125 L 52.394531 215.757812 L 147.113281 250.65625 C 147.511719 250.800781 147.921875 250.914062 148.34375 250.992188 C 148.761719 251.070312 149.1875 251.109375 149.613281 251.113281 C 150.039062 251.121094 150.460938 251.089844 150.882812 251.019531 C 151.304688 250.953125 151.71875 250.851562 152.121094 250.710938 C 152.523438 250.574219 152.914062 250.402344 153.289062 250.199219 C 153.664062 249.996094 154.015625 249.757812 154.351562 249.492188 C 154.6875 249.230469 154.996094 248.9375 155.28125 248.621094 C 155.5625 248.300781 155.820312 247.960938 156.046875 247.597656 Z M 194.609375 209.839844 L 218.207031 247.597656 C 218.433594 247.960938 218.6875 248.300781 218.972656 248.621094 C 219.257812 248.9375 219.566406 249.230469 219.898438 249.492188 C 220.234375 249.757812 220.589844 249.996094 220.960938 250.199219 C 221.335938 250.402344 221.726562 250.574219 222.128906 250.710938 C 222.535156 250.851562 222.945312 250.953125 223.367188 251.019531 C 223.789062 251.089844 224.210938 251.121094 224.640625 251.113281 C 225.066406 251.109375 225.488281 251.070312 225.910156 250.992188 C 226.328125 250.914062 226.738281 250.800781 227.136719 250.65625 L 321.855469 215.757812 L 321.855469 290.8125 L 194.609375 337.683594 Z M 194.609375 209.839844 " fill-opacity="1" fill-rule="nonzero"/></svg>